# xmcd CD database file
#
# Track frame offsets:
#	150
#	21442
#	53135
#	69925
#	93684
#	115706
#	144943
#	176154
#	206812
#	228435
#	250884
#
# Disc length: 3683 seconds
#
# Revision: 0
# Processed by: cddbd v1.5.1PL0 Copyright (c) Steve Scherf et al.
# Submitted via: CDex 1.60beta1
#
DISCID=9a0e610b
DTITLE=Laura Caviani - DreamLife
DYEAR=1995
DGENRE=Jazz
TTITLE0=Second Chance
TTITLE1=Dreamlife
TTITLE2=What Is This Thing Called Love?
TTITLE3=Some Other Time
TTITLE4=For Jan
TTITLE5=August
TTITLE6=Devil Dance
TTITLE7=Past Regrets
TTITLE8=Stella by Starlight
TTITLE9=As a Child
TTITLE10=Give Thanks
EXTD=YEAR: 1995
EXTT0=
EXTT1=
EXTT2=
EXTT3=
EXTT4=
EXTT5=
EXTT6=
EXTT7=
EXTT8=
EXTT9=
EXTT10=
PLAYORDER=
